<mxfile host="app.diagrams.net" modified="2023-08-12T10:03:12.630Z" agent="Mozilla/5.0 (Windows NT 10.0; Win64; x64) AppleWebKit/537.36 (KHTML, like Gecko) Chrome/115.0.0.0 Safari/537.36" version="21.6.8" etag="Yo3dTJ3KZINHgyj_4df6" type="github">
  <diagram name="페이지-1" id="xpNVeODo17x7-Eb8VGIf">
    <mxGraphModel>
      <root>
        <mxCell id="0" />
        <mxCell id="1" parent="0" />
      </root>
    </mxGraphModel>
  </diagram>
</mxfile>
